<svg xmlns="http://www.w3.org/2000/svg" width="256" height="256" viewBox="0 0 256 256" role="img" aria-label="Office MCP control mark">
  <rect width="256" height="256" rx="52" fill="#0F172A" />
  <path d="M50 68c0-11 9-20 20-20h73v116H70c-11 0-20-9-20-20V68Z" fill="#EAF2FF" />
  <path d="M86 88c0-10 8-18 18-18h77v118h-77c-10 0-18-8-18-18V88Z" fill="#4BD7A8" />
  <path d="M122 110c0-10 8-18 18-18h62v112h-62c-10 0-18-8-18-18v-76Z" fill="#243B7A" />
  <path d="M70 80h49M70 106h36M70 132h48" stroke="#2457D6" stroke-width="9" stroke-linecap="round" />
  <path d="M106 102h48M106 128h34M106 154h46" stroke="#0F172A" stroke-width="9" stroke-linecap="round" opacity="0.72" />
  <path d="M146 124h36M146 150h26M146 176h34" stroke="#EAF2FF" stroke-width="9" stroke-linecap="round" opacity="0.92" />
  <path d="M54 198h43c17 0 27-18 42-18h28c18 0 25-28 43-28h7" fill="none" stroke="#2457D6" stroke-width="13" stroke-linecap="round" />
  <circle cx="72" cy="198" r="13" fill="#4BD7A8" stroke="#0F172A" stroke-width="7" />
  <circle cx="139" cy="180" r="13" fill="#EAF2FF" stroke="#0F172A" stroke-width="7" />
  <circle cx="210" cy="152" r="30" fill="#F8D84A" stroke="#0F172A" stroke-width="11" />
  <path d="M194 152h32" stroke="#0F172A" stroke-width="9" stroke-linecap="round" />
  <path d="M210 136v32" stroke="#0F172A" stroke-width="9" stroke-linecap="round" />
  <circle cx="210" cy="152" r="6" fill="#0F172A" />
</svg>
