<svg xmlns="http://www.w3.org/2000/svg" width="256" height="256" viewBox="0 0 256 256" role="img" aria-label="Office MCP control mark">
  <rect width="256" height="256" rx="54" fill="#0F172A" />
  <path d="M55 58h74c10 0 18 8 18 18v104H73c-10 0-18-8-18-18V58Z" fill="#EAF2FF" />
  <path d="M109 76h74c10 0 18 8 18 18v104h-74c-10 0-18-8-18-18V76Z" fill="#48D6A4" />
  <path d="M79 88h48M79 114h36M79 140h44" stroke="#2457D6" stroke-width="9" stroke-linecap="round" />
  <path d="M133 105h42M133 131h30M133 157h42" stroke="#0F172A" stroke-width="9" stroke-linecap="round" opacity="0.72" />
  <path d="M70 196h62c24 0 36-34 60-34h15" fill="none" stroke="#2457D6" stroke-width="12" stroke-linecap="round" />
  <circle cx="70" cy="196" r="12" fill="#48D6A4" stroke="#0F172A" stroke-width="7" />
  <circle cx="132" cy="196" r="12" fill="#EAF2FF" stroke="#0F172A" stroke-width="7" />
  <circle cx="203" cy="162" r="31" fill="#F8D84A" stroke="#0F172A" stroke-width="11" />
  <path d="M190 162h26" stroke="#0F172A" stroke-width="9" stroke-linecap="round" />
  <circle cx="203" cy="162" r="5" fill="#0F172A" />
</svg>
