<svg xmlns="http://www.w3.org/2000/svg" width="256" height="256" viewBox="0 0 256 256" role="img" aria-label="Office MCP control mark">
  <rect width="256" height="256" rx="48" fill="#0F172A" />
  <path d="M46 54h100c12 0 22 10 22 22v116H68c-12 0-22-10-22-22V54Z" fill="#EAF2FF" />
  <path d="M74 78h104c12 0 22 10 22 22v110H96c-12 0-22-10-22-22V78Z" fill="#4BD7A8" />
  <path d="M102 102h86c12 0 22 10 22 22v86h-86c-12 0-22-10-22-22v-86Z" fill="#243B7A" />
  <path d="M64 76h66M64 104h54M64 132h64" stroke="#2457D6" stroke-width="10" stroke-linecap="round" />
  <path d="M94 104h68M94 132h50M94 160h62" stroke="#0F172A" stroke-width="10" stroke-linecap="round" opacity="0.74" />
  <path d="M124 132h54M124 160h36" stroke="#EAF2FF" stroke-width="10" stroke-linecap="round" opacity="0.94" />
  <path d="M48 199h44c22 0 32-26 55-26h22c16 0 24-21 41-21h8" fill="none" stroke="#2457D6" stroke-width="16" stroke-linecap="round" />
  <circle cx="88" cy="199" r="17" fill="#4BD7A8" stroke="#0F172A" stroke-width="8" />
  <circle cx="147" cy="173" r="17" fill="#EAF2FF" stroke="#0F172A" stroke-width="8" />
  <circle cx="211" cy="152" r="34" fill="#F8D84A" stroke="#0F172A" stroke-width="12" />
  <path d="M192 152h38" stroke="#0F172A" stroke-width="10" stroke-linecap="round" />
  <path d="M211 133v38" stroke="#0F172A" stroke-width="10" stroke-linecap="round" />
  <circle cx="211" cy="152" r="7" fill="#0F172A" />
  <path d="M40 212h176" stroke="#0F172A" stroke-width="12" stroke-linecap="round" opacity="0.55" />
</svg>
